<?xml version="1.0" standalone="no"?>
<!DOCTYPE svg PUBLIC "-//W3C//DTD SVG 20010904//EN"
 "http://www.w3.org/TR/2001/REC-SVG-20010904/DTD/svg10.dtd">
<svg version="1.0" xmlns="http://www.w3.org/2000/svg"
 width="773.000000pt" height="257.000000pt" viewBox="0 0 773.000000 257.000000"
 preserveAspectRatio="xMidYMid meet">
<metadata>
Created by potrace 1.16, written by Peter Selinger 2001-2019
</metadata>
<g transform="translate(0.000000,257.000000) scale(0.100000,-0.100000)"
fill="#000000" stroke="none">
<path d="M824 2291 c-131 -36 -268 -122 -367 -232 l-55 -60 -71 66 c-71 65
-104 78 -129 53 -29 -29 2 -129 69 -223 l31 -43 -45 -99 c-84 -184 -117 -333
-118 -528 0 -142 19 -218 77 -302 41 -60 138 -129 219 -156 135 -45 333 -49
414 -9 25 12 46 20 49 18 11 -12 -12 -68 -31 -76 -12 -5 -132 -34 -266 -65
-254 -59 -301 -73 -363 -111 -54 -34 -68 -60 -68 -124 1 -101 62 -185 171
-234 140 -64 342 -61 479 8 143 72 203 148 265 335 27 81 28 84 74 103 100 44
190 107 281 195 52 51 96 93 98 93 1 0 2 -26 2 -57 0 -76 14 -124 45 -153 22
-20 31 -22 89 -18 69 6 132 34 157 71 11 17 14 65 14 227 0 184 2 215 24 303
l25 97 47 0 c25 0 67 3 93 6 l46 7 -23 -54 c-50 -115 -84 -309 -71 -404 10
-77 40 -148 80 -186 35 -34 36 -34 127 -34 81 0 99 3 150 29 34 16 83 53 117
89 l59 60 52 -57 c91 -100 185 -136 350 -136 153 0 247 36 357 135 l57 52 95
-4 c80 -4 103 -2 147 16 l53 21 14 -33 c7 -19 28 -50 46 -71 146 -166 470
-152 677 29 l52 46 25 -39 c84 -133 266 -182 507 -136 136 25 271 94 343 174
20 22 38 40 41 40 3 0 5 -28 5 -62 0 -78 15 -136 43 -167 20 -21 28 -23 89
-18 71 5 147 39 164 74 5 10 9 108 9 218 0 176 3 212 24 303 l24 102 56 0 c31
0 73 4 94 9 34 8 38 7 31 -7 -64 -141 -102 -354 -85 -464 28 -166 113 -233
264 -206 62 12 108 34 174 87 l51 40 40 -39 c58 -55 125 -75 247 -75 118 1
166 18 241 87 42 38 47 40 41 18 -4 -14 -12 -51 -18 -83 -7 -32 -17 -61 -23
-63 -6 -2 -92 -22 -191 -43 -215 -47 -286 -72 -338 -121 -34 -31 -40 -44 -45
-88 -10 -114 47 -206 166 -264 63 -31 72 -33 177 -33 139 0 195 18 268 85 61
55 102 128 142 246 l27 81 69 37 c174 94 339 260 411 414 52 109 47 233 -9
204 -11 -6 -45 -42 -77 -80 -59 -73 -295 -307 -302 -300 -2 3 15 67 37 144 61
209 118 438 131 529 11 78 10 83 -14 135 -60 131 -148 180 -206 116 -25 -26
-98 -251 -148 -451 -54 -219 -96 -300 -171 -331 -64 -27 -138 -10 -150 34 -11
44 7 165 47 319 60 227 55 371 -13 414 -26 16 -42 19 -87 14 -60 -6 -140 -40
-140 -58 0 -15 -57 -439 -65 -486 -5 -24 -30 -58 -96 -126 -98 -101 -150 -135
-175 -114 -19 15 -15 39 46 264 27 99 54 198 60 220 9 37 7 46 -27 115 -24 47
-48 80 -65 90 -24 13 -33 12 -117 -23 -72 -30 -104 -37 -155 -37 l-65 0 -30
63 c-56 118 -130 167 -230 152 -51 -8 -105 -54 -117 -99 -10 -42 13 -103 57
-151 21 -23 39 -46 39 -51 0 -4 -16 -45 -35 -91 -20 -45 -43 -115 -51 -155
-15 -71 -17 -75 -87 -140 -127 -118 -230 -167 -353 -168 -82 0 -152 21 -185
56 -19 20 -24 36 -24 81 l0 57 140 55 c171 68 217 95 277 159 108 116 85 294
-47 353 -50 23 -189 25 -258 4 -192 -58 -350 -245 -411 -485 l-24 -94 -78 -76
c-44 -42 -95 -83 -116 -93 -81 -38 -208 -10 -248 55 -50 82 4 357 86 442 48
50 83 51 147 5 45 -33 72 -36 105 -13 36 25 55 73 56 141 1 58 -2 65 -32 95
-32 33 -33 33 -135 33 -94 0 -107 -2 -170 -32 -199 -95 -326 -269 -381 -525
-7 -31 -91 -78 -142 -78 l-32 0 21 53 c15 39 20 76 21 147 1 86 -2 99 -26 141
-33 56 -63 77 -132 90 -111 23 -219 -25 -281 -126 -28 -45 -30 -55 -30 -144 1
-113 19 -163 86 -236 41 -44 42 -48 25 -61 -49 -35 -204 -31 -260 7 -39 27
-80 95 -90 150 -9 53 9 161 38 224 44 97 146 187 244 215 20 6 90 15 156 20
158 13 182 34 104 90 -103 75 -308 95 -465 45 -131 -41 -253 -146 -323 -276
-37 -70 -70 -194 -70 -264 0 -52 0 -53 -75 -124 -83 -78 -119 -99 -141 -80
-20 17 -11 61 80 392 l35 128 -25 56 c-34 79 -70 123 -98 123 -13 0 -54 -14
-92 -32 -52 -23 -88 -32 -146 -36 l-77 -5 -24 55 c-50 113 -141 178 -228 164
-57 -9 -96 -34 -114 -72 -29 -62 -13 -123 49 -187 l37 -37 -36 -90 c-20 -50
-42 -119 -50 -155 -11 -55 -22 -75 -64 -124 -67 -77 -279 -281 -293 -281 -6 0
-8 9 -4 23 35 123 59 244 60 302 1 60 -3 77 -28 120 -40 69 -91 115 -125 115
-67 0 -109 -74 -136 -240 -23 -142 -26 -147 -91 -177 -49 -22 -66 -25 -138
-21 -69 4 -92 9 -137 35 -148 83 -179 310 -83 616 20 63 29 78 42 74 168 -50
212 -57 317 -58 136 0 222 20 308 71 119 71 177 173 177 310 0 132 -55 217
-166 260 -85 33 -280 38 -380 11z m240 -205 c46 -19 66 -52 66 -106 0 -104
-98 -180 -233 -180 -69 0 -183 19 -229 39 l-40 17 45 60 c63 86 147 150 227
175 42 12 129 10 164 -5z m3870 -578 c8 -13 7 -29 -4 -60 -13 -36 -28 -51
-100 -100 -47 -32 -89 -58 -94 -58 -30 0 40 188 83 221 31 25 98 23 115 -3z
m-4134 -1015 c0 -16 -63 -102 -104 -142 -56 -54 -111 -71 -199 -59 -68 9 -102
27 -112 59 -13 41 20 56 215 103 210 50 200 48 200 39z m5940 -51 c0 -17 -72
-112 -101 -132 -58 -42 -154 -20 -189 43 -24 42 -1 56 131 77 132 21 159 23
159 12z"/>
</g>
</svg>
